<?xml version="1.0" encoding="utf-8"?>
<!-- Generator: Adobe Illustrator 25.4.1, SVG Export Plug-In . SVG Version: 6.00 Build 0)  -->
<svg version="1.1" id="Layer_1" xmlns="http://www.w3.org/2000/svg" xmlns:xlink="http://www.w3.org/1999/xlink" x="0px" y="0px"
	 viewBox="0 0 1024 1024" style="enable-background:new 0 0 1024 1024;" xml:space="preserve">
<style type="text/css">
	.st0{fill:#1B1F23;}
</style>
<path class="st0" d="M950.9,0.5H73.8C33.7,0.5,1,33.6,1,74.3v875.5c0,40.6,32.7,73.8,72.8,73.8h877.1c40.2,0,73.1-33.1,73.1-73.8
	V74.3C1024,33.6,991.1,0.5,950.9,0.5z M310.2,877.4H158.6V389.1h151.9v488.2H310.2z M234.4,322.5c-48.6,0-87.9-39.5-87.9-87.9
	s39.3-87.9,87.9-87.9c48.4,0,87.9,39.5,87.9,87.9C322.3,283.2,283,322.5,234.4,322.5z M878.5,877.4H726.9V639.9
	c0-56.6-1.1-129.5-78.8-129.5c-79,0-91.1,61.7-91.1,125.4v241.6H405.4V389.1h145.5v66.7h2.1c20.3-38.4,69.9-78.8,143.6-78.8
	c153.5,0,182,101.2,182,232.7V877.4z"/>
</svg>
