<?xml version="1.0" encoding="utf-8"?>
<!-- Generator: Adobe Illustrator 25.4.1, SVG Export Plug-In . SVG Version: 6.00 Build 0)  -->
<svg version="1.1" id="Layer_1" xmlns="http://www.w3.org/2000/svg" xmlns:xlink="http://www.w3.org/1999/xlink" x="0px" y="0px"
	 viewBox="0 0 1024 1024" style="enable-background:new 0 0 1024 1024;" xml:space="preserve">
<style type="text/css">
	.st0{fill:#1B1F23;}
</style>
<path class="st0" d="M1,0.5v1023h1023V0.5H1z M850.9,242.8l-54.8,52.5c-4.8,3.7-7.1,9.6-6.2,15.3v386.6c-0.9,5.9,1.4,11.9,6.2,15.3
	l53.7,52.5v11.6H580.3v-11.2l55.5-53.9c5.5-5.5,5.5-7.1,5.5-15.3V383.7L486.9,775.5h-20.8L286.4,383.7v262.6
	c-1.6,11,2.3,22.1,10,30.1l72.2,87.5v11.6H163.6v-11.6l72.2-87.5c7.8-8,11.2-19.2,9.4-30.1V342.6c0.9-8.4-2.3-16.7-8.7-22.4
	l-64.2-77.4v-11.6h199.3l153.9,338l135.4-337.7h190V242.8z"/>
</svg>
