<?xml version="1.0" encoding="utf-8"?>
<!-- Generator: Adobe Illustrator 25.4.1, SVG Export Plug-In . SVG Version: 6.00 Build 0)  -->
<svg version="1.1" id="Layer_1" xmlns="http://www.w3.org/2000/svg" xmlns:xlink="http://www.w3.org/1999/xlink" x="0px" y="0px"
	 viewBox="0 0 1024 1024" style="enable-background:new 0 0 1024 1024;" xml:space="preserve">
<style type="text/css">
	.st0{fill:#1B1F23;}
</style>
<path class="st0" d="M913.7,1H112C51.7,1,2.7,50,2.7,110.3V912c0,60.4,49,109.3,109.3,109.3h801.6c60.4,0,109.3-49,109.3-109.3
	V110.3C1023,50,974,1,913.7,1z M802.3,362.6c0.5,6.4,0.5,13,0.5,19.4c0,197.4-150.3,425-425,425c-84.7,0-163.3-24.6-229.3-67
	c12.1,1.4,23.7,1.8,36,1.8c69.9,0,134.1-23.7,185.4-63.8c-65.6-1.4-120.7-44.4-139.6-103.6c23,3.4,43.7,3.4,67.4-2.7
	c-68.3-13.9-119.6-74-119.6-146.7v-1.8c19.8,11.2,43,18,67.4,18.9c-41.6-27.7-66.6-74.4-66.5-124.3c0-27.8,7.3-53.3,20.3-75.4
	c73.6,90.6,184,149.9,307.9,156.2C486,297.3,561.8,215.1,652.9,215.1c43,0,81.8,18,109.1,47.1c33.7-6.4,66-18.9,94.7-36
	c-11.2,34.6-34.6,63.8-65.6,82.2c30.1-3.2,59.2-11.6,86.1-23.2C857,315.1,831.5,341.5,802.3,362.6z"/>
</svg>
