<?xml version="1.0" encoding="utf-8"?>
<!-- Generator: Adobe Illustrator 25.4.1, SVG Export Plug-In . SVG Version: 6.00 Build 0)  -->
<svg version="1.1" id="Layer_1" xmlns="http://www.w3.org/2000/svg" xmlns:xlink="http://www.w3.org/1999/xlink" x="0px" y="0px"
	 viewBox="0 0 1024 1024" style="enable-background:new 0 0 1024 1024;" xml:space="preserve" fill="#1B1F23">
<path d="M715.2,193.9c-50.1-31.6-98.1-44-145.9-75.6C540,98.5,498.7,50.7,464.4,9.4c-6.1,66.1-25.9,92.9-49.6,111.6
	c-48,38.3-78.5,50.1-120.7,72.8C258.5,212.6,66.8,344.5,66.8,590.4c0,246.3,207,427.4,437.1,427.4c229.4,0,429-166.9,429-419.5
	C932.8,345,745.6,212.6,715.2,193.9z M720.8,928.2c-45.3,45.3-203.2,64.7-263.2,9.5c-10.8-10.8,0.7-27.1,14.7-27.1
	c0,0,38.3,30,116.1,30c60.9,0,103.7-17.4,122.9-31.6C725.1,898.6,730.3,918.7,720.8,928.2z M597.9,809.6c19.6-8.1,65.4-8.6,83,2.9
	c9.2,6.3,36.3,42.4,14,53.4c-18.9,9.5-2.7-35.4-59.8-35.4c-33.2,0-44,11.7-60.2,24.8c-15.8,13.5-22.1,18-27.5,10.6
	C533.9,847.5,583.3,815.7,597.9,809.6z M806.5,848.6c-34.3-2.3-102.6-110.1-146.6-111.6c-69.7-2-234.8,182-363.8,94.7
	c-87.5-60-32.9-236.4,116.8-237.3c111.6-1.1,189,110.5,244.7,109.4c48-0.7,139.4-94.3,184.5-94.3C952,609.5,894.7,856,806.5,848.6z"
	/>
</svg>
