<?xml version="1.0" encoding="utf-8"?>
<!-- Generator: Adobe Illustrator 25.4.1, SVG Export Plug-In . SVG Version: 6.00 Build 0)  -->
<svg version="1.1" id="Layer_1" xmlns="http://www.w3.org/2000/svg" xmlns:xlink="http://www.w3.org/1999/xlink" x="0px" y="0px"
	 viewBox="0 0 1024 1024" style="enable-background:new 0 0 1024 1024;" xml:space="preserve">
<style type="text/css">
	.st0{fill-rule:evenodd;clip-rule:evenodd;fill:#1B1F23;}
</style>
<path class="st0" d="M77,344.5c-92.5,92.5-92.5,242.5,0,335l268,268c92.5,92.5,242.5,92.5,335,0l268-268c92.5-92.5,92.5-242.5,0-335
	l-268-268C587.5-16,437.5-16,345,76.5C345,76.5,77,344.5,77,344.5z M629.7,629.2c64.8-64.7,64.8-169.7,0-234.5
	C565,330,460,330,395.3,394.8c-64.8,64.7-64.8,169.7,0,234.5C460,694,565,694,629.7,629.2L629.7,629.2z"/>
</svg>
